<svg width="40" height="40" viewBox="0 0 40 40" fill="none" xmlns="http://www.w3.org/2000/svg">
<path d="M0 10C0 4.47715 4.47715 0 10 0V10H0Z" fill="url(#paint0_linear_11179_29254)"/>
<path d="M0 30H10V40C4.47715 40 0 35.5229 0 30Z" fill="url(#paint1_linear_11179_29254)"/>
<path d="M20 10C25.5228 10 30 14.4772 30 20H20V10Z" fill="url(#paint2_linear_11179_29254)"/>
<path d="M20 20H30C30 25.5228 25.5228 30 20 30V20Z" fill="url(#paint3_linear_11179_29254)"/>
<path d="M10 20C10 14.4772 14.4772 10 20 10V20H10Z" fill="url(#paint4_linear_11179_29254)"/>
<path d="M10 20H20V30C14.4772 30 10 25.5228 10 20Z" fill="url(#paint5_linear_11179_29254)"/>
<path d="M30 0C35.5229 0 40 4.47715 40 10H30V0Z" fill="url(#paint6_linear_11179_29254)"/>
<path d="M0 20C0 14.4772 4.47715 10 10 10V20H0Z" fill="url(#paint7_linear_11179_29254)"/>
<path d="M0 20H10V30C4.47715 30 0 25.5228 0 20Z" fill="url(#paint8_linear_11179_29254)"/>
<path d="M30 10C35.5229 10 40 14.4772 40 20H30V10Z" fill="url(#paint9_linear_11179_29254)"/>
<path d="M30 20H40C40 25.5228 35.5229 30 30 30V20Z" fill="url(#paint10_linear_11179_29254)"/>
<path d="M20 40C14.4772 40 10 35.5229 10 30H20V40Z" fill="url(#paint11_linear_11179_29254)"/>
<path d="M20 40V30H30C30 35.5229 25.5228 40 20 40Z" fill="url(#paint12_linear_11179_29254)"/>
<path d="M10 10C10 4.47715 14.4772 1.6969e-07 20 2.35549e-07V10H10Z" fill="url(#paint13_linear_11179_29254)"/>
<path d="M20 10V2.35549e-07C25.5228 3.01409e-07 30 4.47715 30 10H20Z" fill="url(#paint14_linear_11179_29254)"/>
<path d="M30 30H40C40 35.5229 35.5229 40 30 40V30Z" fill="url(#paint15_linear_11179_29254)"/>
<defs>
<linearGradient id="paint0_linear_11179_29254" x1="0" y1="20" x2="40" y2="20" gradientUnits="userSpaceOnUse">
<stop stop-color="#103A36"/>
<stop offset="1" stop-color="#AAD440"/>
</linearGradient>
<linearGradient id="paint1_linear_11179_29254" x1="0" y1="20" x2="40" y2="20" gradientUnits="userSpaceOnUse">
<stop stop-color="#103A36"/>
<stop offset="1" stop-color="#AAD440"/>
</linearGradient>
<linearGradient id="paint2_linear_11179_29254" x1="0" y1="20" x2="40" y2="20" gradientUnits="userSpaceOnUse">
<stop stop-color="#103A36"/>
<stop offset="1" stop-color="#AAD440"/>
</linearGradient>
<linearGradient id="paint3_linear_11179_29254" x1="0" y1="20" x2="40" y2="20" gradientUnits="userSpaceOnUse">
<stop stop-color="#103A36"/>
<stop offset="1" stop-color="#AAD440"/>
</linearGradient>
<linearGradient id="paint4_linear_11179_29254" x1="0" y1="20" x2="40" y2="20" gradientUnits="userSpaceOnUse">
<stop stop-color="#103A36"/>
<stop offset="1" stop-color="#AAD440"/>
</linearGradient>
<linearGradient id="paint5_linear_11179_29254" x1="0" y1="20" x2="40" y2="20" gradientUnits="userSpaceOnUse">
<stop stop-color="#103A36"/>
<stop offset="1" stop-color="#AAD440"/>
</linearGradient>
<linearGradient id="paint6_linear_11179_29254" x1="0" y1="20" x2="40" y2="20" gradientUnits="userSpaceOnUse">
<stop stop-color="#103A36"/>
<stop offset="1" stop-color="#AAD440"/>
</linearGradient>
<linearGradient id="paint7_linear_11179_29254" x1="0" y1="20" x2="40" y2="20" gradientUnits="userSpaceOnUse">
<stop stop-color="#103A36"/>
<stop offset="1" stop-color="#AAD440"/>
</linearGradient>
<linearGradient id="paint8_linear_11179_29254" x1="0" y1="20" x2="40" y2="20" gradientUnits="userSpaceOnUse">
<stop stop-color="#103A36"/>
<stop offset="1" stop-color="#AAD440"/>
</linearGradient>
<linearGradient id="paint9_linear_11179_29254" x1="0" y1="20" x2="40" y2="20" gradientUnits="userSpaceOnUse">
<stop stop-color="#103A36"/>
<stop offset="1" stop-color="#AAD440"/>
</linearGradient>
<linearGradient id="paint10_linear_11179_29254" x1="0" y1="20" x2="40" y2="20" gradientUnits="userSpaceOnUse">
<stop stop-color="#103A36"/>
<stop offset="1" stop-color="#AAD440"/>
</linearGradient>
<linearGradient id="paint11_linear_11179_29254" x1="0" y1="20" x2="40" y2="20" gradientUnits="userSpaceOnUse">
<stop stop-color="#103A36"/>
<stop offset="1" stop-color="#AAD440"/>
</linearGradient>
<linearGradient id="paint12_linear_11179_29254" x1="0" y1="20" x2="40" y2="20" gradientUnits="userSpaceOnUse">
<stop stop-color="#103A36"/>
<stop offset="1" stop-color="#AAD440"/>
</linearGradient>
<linearGradient id="paint13_linear_11179_29254" x1="0" y1="20" x2="40" y2="20" gradientUnits="userSpaceOnUse">
<stop stop-color="#103A36"/>
<stop offset="1" stop-color="#AAD440"/>
</linearGradient>
<linearGradient id="paint14_linear_11179_29254" x1="0" y1="20" x2="40" y2="20" gradientUnits="userSpaceOnUse">
<stop stop-color="#103A36"/>
<stop offset="1" stop-color="#AAD440"/>
</linearGradient>
<linearGradient id="paint15_linear_11179_29254" x1="0" y1="20" x2="40" y2="20" gradientUnits="userSpaceOnUse">
<stop stop-color="#103A36"/>
<stop offset="1" stop-color="#AAD440"/>
</linearGradient>
</defs>
</svg>
