<svg width="40" height="40" viewBox="0 0 40 40" fill="none" xmlns="http://www.w3.org/2000/svg">
<path fill-rule="evenodd" clip-rule="evenodd" d="M16.2688 0.761205C17.4518 0.258658 18.7196 0 20 0V6.21588C20.0581 6.1548 20.1171 6.09439 20.1768 6.03469C21.1054 5.1061 22.2032 4.36494 23.4076 3.85351C24.6119 3.34207 25.8993 3.0704 27.1961 3.05398C28.4929 3.03756 29.7737 3.27673 30.9656 3.75783C32.1574 4.23893 33.2368 4.95254 34.1421 5.85791L29.747 10.2531C29.8312 10.251 29.9156 10.25 30 10.25C31.3132 10.25 32.6136 10.5022 33.8268 10.9921C35.0401 11.4821 36.1425 12.2003 37.0711 13.1057C37.9997 14.0111 38.7362 15.0859 39.2388 16.2688C39.7413 17.4517 40 18.7196 40 20L33.7841 20C33.8452 20.0581 33.9056 20.1171 33.9654 20.1768C34.8939 21.1054 35.6351 22.2032 36.1465 23.4076C36.658 24.612 36.9296 25.8993 36.9461 27.1961C36.9625 28.4929 36.7233 29.7738 36.2422 30.9656C35.7611 32.1574 35.0475 33.2368 34.1421 34.1422L29.7469 29.7469C29.749 29.8312 29.75 29.9156 29.75 30C29.75 31.3132 29.4978 32.6136 29.0078 33.8268C28.5178 35.0401 27.7997 36.1425 26.8943 37.0711C25.9889 37.9997 24.9141 38.7363 23.7312 39.2388C22.5482 39.7413 21.2804 40 20 40V33.7842C19.9419 33.8453 19.8829 33.9057 19.8232 33.9654C18.8946 34.894 17.7968 35.6352 16.5924 36.1466C15.3881 36.658 14.1007 36.9297 12.8039 36.9461C11.5071 36.9625 10.2263 36.7234 9.03445 36.2423C7.84264 35.7612 6.76323 35.0475 5.85786 34.1422L10.2532 29.7468C10.1689 29.7489 10.0845 29.7499 10 29.7499C8.68678 29.7499 7.38642 29.4978 6.17317 29.0078C4.95991 28.5178 3.85752 27.7996 2.92893 26.8942C2.00035 25.9889 1.26375 24.914 0.761205 23.7311C0.258657 22.5482 0 21.2803 0 19.9999H6.21572C6.15467 19.9418 6.0943 19.8829 6.03463 19.8233C5.10604 18.8947 4.36487 17.7969 3.85344 16.5925C3.34201 15.3881 3.07033 14.1008 3.05392 12.804C3.0375 11.5072 3.27667 10.2263 3.75777 9.03449C4.23887 7.84268 4.95248 6.76327 5.85785 5.8579L10.2531 10.2532C10.251 10.1688 10.25 10.0845 10.25 10C10.25 8.68678 10.5022 7.38642 10.9922 6.17317C11.4822 4.95991 12.2003 3.85752 13.1057 2.92893C14.0111 2.00035 15.0859 1.26375 16.2688 0.761205Z" fill="url(#paint0_linear_11179_29262)"/>
<defs>
<linearGradient id="paint0_linear_11179_29262" x1="0" y1="20" x2="40" y2="20" gradientUnits="userSpaceOnUse">
<stop stop-color="#103A36"/>
<stop offset="1" stop-color="#AAD440"/>
</linearGradient>
</defs>
</svg>
