<svg width="90" height="47" viewBox="0 0 90 47" fill="none" xmlns="http://www.w3.org/2000/svg">
<path d="M45 -42C45.9359 -42 47.1256 -41.1957 48.416 -38.9629C49.6639 -36.8035 50.8215 -33.6122 51.8066 -29.582C53.7732 -21.5368 55 -10.3705 55 2C55 14.3705 53.7732 25.5368 51.8066 33.582C50.8215 37.6122 49.6639 40.8035 48.416 42.9629C47.1256 45.1957 45.9359 46 45 46C44.0641 46 42.8744 45.1957 41.584 42.9629C40.3361 40.8035 39.1785 37.6122 38.1934 33.582C36.2268 25.5368 35 14.3705 35 2C35 -10.3705 36.2268 -21.5368 38.1934 -29.582C39.1785 -33.6122 40.3361 -36.8035 41.584 -38.9629C42.8744 -41.1957 44.0641 -42 45 -42Z" stroke="white" stroke-opacity="0.4" stroke-width="2"/>
<path d="M1 2C1 1.06412 1.80426 -0.12558 4.03711 -1.41602C6.19647 -2.6639 9.38778 -3.82148 13.418 -4.80664C21.4632 -6.77322 32.6295 -8 45 -8C57.3705 -8 68.5368 -6.77321 76.582 -4.80664C80.6122 -3.82148 83.8035 -2.6639 85.9629 -1.41601C88.1957 -0.125579 89 1.06412 89 2C89 2.93588 88.1957 4.12558 85.9629 5.41602C83.8035 6.6639 80.6122 7.82148 76.582 8.80664C68.5368 10.7732 57.3705 12 45 12C32.6295 12 21.4632 10.7732 13.418 8.80664C9.38778 7.82148 6.19647 6.6639 4.03711 5.41602C1.80426 4.12558 1 2.93588 1 2Z" stroke="white" stroke-opacity="0.4" stroke-width="2"/>
<path d="M13.8872 -29.115C14.5812 -29.809 16.0246 -30.0934 18.5282 -29.4499C20.9566 -28.8258 24.0487 -27.4063 27.6101 -25.2694C34.7195 -21.0038 43.5013 -13.9966 52.2477 -5.25018C60.9941 3.49621 68.0014 12.278 72.267 19.3874C74.4038 22.9488 75.8233 26.041 76.4475 28.4693C77.0909 30.9729 76.8066 32.4164 76.1126 33.1104C75.4185 33.8044 73.9751 34.0888 71.4715 33.4453C69.0431 32.8211 65.951 31.4017 62.3896 29.2648C55.2802 24.9992 46.4984 17.9919 37.752 9.24551C29.0056 0.499118 21.9983 -8.28272 17.7327 -15.3921C15.5959 -18.9535 14.1764 -22.0456 13.5522 -24.474C12.9088 -26.9776 13.1931 -28.421 13.8872 -29.115Z" stroke="white" stroke-opacity="0.4" stroke-width="2"/>
<path d="M13.8874 33.1114C13.1934 32.4174 12.909 30.9739 13.5525 28.4703C14.1766 26.042 15.5961 22.9499 17.733 19.3884C21.9986 12.2791 29.0059 3.49723 37.7523 -5.24916C46.4987 -13.9956 55.2805 -21.0028 62.3898 -25.2684C65.9513 -27.4053 69.0434 -28.8248 71.4717 -29.4489C73.9754 -30.0924 75.4188 -29.808 76.1128 -29.114C76.8068 -28.42 77.0912 -26.9766 76.4477 -24.4729C75.8236 -22.0446 74.4041 -18.9525 72.2672 -15.391C68.0016 -8.2817 60.9943 0.500134 52.248 9.24653C43.5016 17.9929 34.7197 25.0002 27.6104 29.2658C24.0489 31.4027 20.9568 32.8222 18.5285 33.4463C16.0248 34.0898 14.5814 33.8054 13.8874 33.1114Z" stroke="white" stroke-opacity="0.4" stroke-width="2"/>
</svg>
