<svg width="36" height="36" viewBox="0 0 36 36" fill="none" xmlns="http://www.w3.org/2000/svg">
<path d="M8.99313 2.40565C8.78922 2.51815 8.61344 2.6869 8.47282 2.9119C8.26188 3.2494 8.26188 3.26347 8.24079 4.40956C8.21969 5.54159 8.21969 5.56972 8.4025 5.9494C8.66969 6.49081 9.00719 6.70175 9.66813 6.72987C10.3853 6.77206 10.8353 6.51894 11.1377 5.92128C11.2291 5.73847 11.2502 5.46425 11.2502 4.49394C11.2502 3.22128 11.215 3.05253 10.8705 2.67987C10.4556 2.22284 9.58375 2.09628 8.99313 2.40565Z" fill="#1F6F5F"/>
<path d="M25.5586 2.35633C25.2492 2.52508 25.0312 2.74305 24.8836 3.03133C24.7711 3.25633 24.75 3.45321 24.75 4.49383C24.75 5.46415 24.7711 5.73837 24.8625 5.92118C25.1648 6.52587 25.6148 6.77196 26.332 6.72977C26.9719 6.70165 27.3305 6.47665 27.5977 5.9493C27.7664 5.6118 27.7734 5.52743 27.7734 4.49383C27.7734 3.45321 27.7664 3.37587 27.5906 3.0243C27.3164 2.4829 26.9859 2.28602 26.3039 2.2579C25.9172 2.24383 25.7133 2.27196 25.5586 2.35633Z" fill="#1F6F5F"/>
<path d="M5.02031 4.62656C4.00078 4.97813 3.25547 5.82188 3.03047 6.87656C2.98125 7.10859 2.95312 8.13516 2.95312 9.63281V12.0234H18H33.0469V9.63281C33.0469 8.13516 33.0187 7.10859 32.9695 6.87656C32.7727 5.96953 32.168 5.18906 31.3242 4.77422C30.8742 4.55625 30.7758 4.53516 30.0586 4.50703L29.2781 4.48594L29.2008 5.26641C29.1023 6.24375 28.8703 6.79922 28.3078 7.34766C27.1266 8.50078 25.3547 8.48672 24.1805 7.31953C23.5547 6.68672 23.2734 5.95547 23.2734 4.95V4.5H18H12.7266V4.95C12.7266 5.96953 12.4523 6.67969 11.8195 7.31953C10.6453 8.48672 8.88047 8.50078 7.69219 7.34766C7.12969 6.79922 6.89766 6.24375 6.79922 5.27344L6.72187 4.5H6.05391C5.59687 4.50703 5.25937 4.54219 5.02031 4.62656Z" fill="#1F6F5F"/>
<path d="M2.95312 22.25C2.95312 28.4586 2.97422 31.1023 3.03047 31.3695C3.22734 32.2766 3.83203 33.057 4.67578 33.4719L5.16797 33.7109H18H30.832L31.3242 33.4719C32.168 33.057 32.7727 32.2766 32.9695 31.3695C33.0258 31.1023 33.0469 28.4586 33.0469 22.25V13.4961H18H2.95312V22.25ZM11.0742 17.4266C11.2289 17.4969 11.4398 17.6445 11.5453 17.757C11.8969 18.1297 11.9531 18.3898 11.9531 19.5219C11.9531 20.7172 11.8758 20.9844 11.4258 21.35C11.0391 21.6734 10.7016 21.7367 9.59062 21.7086C8.66953 21.6875 8.59219 21.6734 8.28281 21.4906C8.06484 21.3641 7.88203 21.1813 7.75547 20.9633C7.57266 20.6539 7.55859 20.5766 7.5375 19.6555C7.50938 18.5445 7.57266 18.207 7.89609 17.8203C8.26172 17.3703 8.52891 17.293 9.73828 17.293C10.6172 17.293 10.8422 17.3211 11.0742 17.4266ZM19.5539 17.5391C19.7367 17.6656 19.9266 17.8906 20.032 18.1016C20.2078 18.432 20.2148 18.5094 20.2148 19.5078C20.2148 20.7031 20.1586 20.9 19.6875 21.3289C19.3219 21.6523 19.0406 21.7227 18 21.7227C16.9594 21.7227 16.6781 21.6523 16.3125 21.3289C15.9047 20.9563 15.8062 20.682 15.7641 19.7961C15.7078 18.4391 15.9328 17.7992 16.5938 17.4547C16.8961 17.293 16.9594 17.2859 18.0844 17.307L19.2516 17.3281L19.5539 17.5391ZM27.6047 17.4266C27.9562 17.5883 28.2937 17.9891 28.4062 18.3828C28.4625 18.5727 28.4836 19.0367 28.4625 19.6555C28.4414 20.5766 28.4273 20.6539 28.2445 20.9633C28.118 21.1813 27.9352 21.3641 27.7172 21.4906C27.4078 21.6734 27.3305 21.6875 26.4094 21.7086C25.2984 21.7367 24.9609 21.6734 24.5742 21.35C24.1242 20.9844 24.0469 20.7172 24.0469 19.5219C24.0469 18.3898 24.1031 18.1297 24.4547 17.757C24.8203 17.3633 25.0945 17.293 26.2617 17.293C27.1406 17.293 27.3656 17.3211 27.6047 17.4266ZM10.9055 25.5969C11.2711 25.7094 11.6648 26.0469 11.8195 26.3914C11.925 26.6305 11.9531 26.8555 11.9531 27.7344C11.9531 28.9016 11.8828 29.1758 11.4891 29.5414C11.1164 29.893 10.8562 29.9492 9.72422 29.9492C8.52891 29.9492 8.26172 29.8719 7.89609 29.4219C7.57266 29.0352 7.50938 28.6977 7.5375 27.5867C7.55859 26.6727 7.57266 26.5883 7.74844 26.2789C7.94531 25.9555 8.26875 25.7023 8.63437 25.5898C8.92266 25.4984 10.6031 25.5055 10.9055 25.5969ZM19.1461 25.5969C19.4766 25.6883 19.9125 26.068 20.0812 26.4195C20.1938 26.6375 20.2148 26.8484 20.2148 27.7344C20.2148 28.7328 20.2078 28.8102 20.032 29.1406C19.9266 29.3516 19.7367 29.5766 19.5539 29.7031L19.2516 29.9141H18H16.7484L16.4461 29.7031C16.2633 29.5766 16.0734 29.3516 15.968 29.1406C15.7922 28.8102 15.7852 28.7328 15.7852 27.7344C15.7852 26.8625 15.8062 26.6375 15.9117 26.4266C16.0805 26.082 16.4531 25.7375 16.7766 25.625C17.107 25.5055 18.7523 25.4844 19.1461 25.5969ZM27.7172 25.7516C27.9352 25.8781 28.118 26.0609 28.2445 26.2789C28.4273 26.5883 28.4414 26.6656 28.4625 27.5867C28.4906 28.6977 28.4273 29.0352 28.1039 29.4219C27.7383 29.8719 27.4711 29.9492 26.2758 29.9492C25.1437 29.9492 24.8836 29.893 24.5109 29.5414C24.1172 29.1758 24.0469 28.9016 24.0469 27.7344C24.0469 26.525 24.1313 26.2438 24.5672 25.8992C24.9891 25.5617 25.1859 25.5195 26.332 25.5406C27.3445 25.5547 27.4008 25.5617 27.7172 25.7516Z" fill="#1F6F5F"/>
</svg>
