<svg width="78" height="78" viewBox="0 0 78 78" fill="none" xmlns="http://www.w3.org/2000/svg">
<path d="M36.3606 0.900234C37.8323 -0.300078 39.9451 -0.300078 41.4167 0.900234L44.5899 3.48832C45.5887 4.30264 46.9183 4.58616 48.1619 4.24996L52.1043 3.1844C53.9351 2.68956 55.8615 3.54832 56.7175 5.24064L58.5803 8.92448C59.1603 10.0709 60.2551 10.869 61.5239 11.07L65.5755 11.7119C67.4423 12.0077 68.8475 13.5699 68.9443 15.4576L69.1575 19.6137C69.2231 20.8915 69.8963 22.0609 70.9683 22.7596L74.4347 25.0191C76.0131 26.0482 76.6595 28.0396 75.9859 29.7997L74.4947 33.6969C74.0383 34.8892 74.1787 36.2276 74.8719 37.2994L77.1359 40.7979C78.1587 42.3791 77.9403 44.4595 76.6111 45.7939L73.6791 48.7375C72.7775 49.6427 72.3623 50.9239 72.5623 52.1859L73.2147 56.3055C73.5095 58.1691 72.4619 59.9855 70.7011 60.6639L66.8571 62.1439C65.6607 62.6047 64.7575 63.6107 64.4283 64.8499L63.3639 68.8571C62.8779 70.6875 61.1751 71.9259 59.2843 71.8247L55.2007 71.6063C53.9155 71.5375 52.6759 72.0911 51.8695 73.0939L49.2943 76.2971C48.1047 77.7767 46.0391 78.2163 44.3499 77.3491L40.7155 75.4831C39.5687 74.8947 38.2087 74.8947 37.0619 75.4831L33.4273 77.3491C31.7384 78.2163 29.6727 77.7767 28.4832 76.2971L25.9079 73.0939C25.1015 72.0911 23.8619 71.5375 22.5768 71.6063L18.4931 71.8247C16.6023 71.9259 14.8995 70.6875 14.4135 68.8571L13.349 64.8499C13.0199 63.6107 12.1168 62.6047 10.9204 62.1439L7.07633 60.6639C5.31533 59.9855 4.26777 58.1691 4.56289 56.3055L5.21517 52.1859C5.41497 50.9239 4.99993 49.6427 4.09829 48.7375L1.16616 45.7939C-0.162854 44.4595 -0.38127 42.3791 0.641686 40.7979L2.90529 37.2994C3.59877 36.2276 3.73897 34.8892 3.28273 33.6969L1.79134 29.7997C1.1178 28.0396 1.76412 26.0482 3.34285 25.0191L6.80925 22.7596C7.88117 22.0609 8.55413 20.8915 8.61969 19.6137L8.83297 15.4576C8.92985 13.5699 10.3349 12.0077 12.2018 11.7119L16.2534 11.07C17.5222 10.869 18.6173 10.0709 19.197 8.92448L21.06 5.24064C21.9159 3.54832 23.8425 2.68956 25.6732 3.1844L29.6155 4.24996C30.8593 4.58616 32.1889 4.30264 33.1873 3.48832L36.3606 0.900234Z" fill="#1F6F5F"/>
</svg>
