<svg width="40" height="40" viewBox="0 0 40 40" fill="none" xmlns="http://www.w3.org/2000/svg">
<path d="M23.3594 2.58594C27.8672 3.10938 30.6719 5.10938 31.7812 8.59375C32.1094 9.63281 32.2578 10.7031 32.3438 12.7344C32.4453 15.3047 32.6797 15.9844 34.1719 18.0469C34.8516 18.9766 34.9922 19.2266 35 19.4609C35 19.6172 34.9531 19.7891 34.8984 19.8359C34.8359 19.8828 34.4062 20.0156 33.9375 20.1328C32.5234 20.4766 32.4375 20.7031 33.2422 21.9219C33.5234 22.3516 33.75 22.7734 33.75 22.8672C33.75 23 33.625 23.1094 33.2422 23.3203C32.3203 23.8438 32.2734 24.1172 33.0078 24.8047C33.3281 25.1016 33.5156 25.3359 33.5156 25.4375C33.5156 25.5312 33.375 25.7812 33.2031 25.9844C32.5234 26.7969 32.2891 27.6562 32.4922 28.5625C32.6641 29.3281 32.3672 29.9062 31.625 30.2422C31.2344 30.4219 31.125 30.4297 29.4141 30.4375C27.1016 30.4531 26.5312 30.5938 25.8125 31.2812C25.5 31.5859 25.4766 31.6484 25.2109 32.7734C24.9297 33.9453 24.8047 34.7031 24.7031 35.9297L24.6484 36.5859L23.9062 36.8047C22.25 37.3047 20.8438 37.5078 19.1094 37.5078C17.5391 37.5 16.5078 37.3516 15.2344 36.9453C14.6172 36.7422 13.2031 36.0938 13.2031 36.0078C13.2031 35.9766 13.4062 35.8359 13.6484 35.6953C13.8984 35.5547 14.5234 35.1641 15.0391 34.8203C18.3047 32.6641 19.9844 30.4922 20.5938 27.6406C20.7891 26.7344 20.7969 24.8984 20.6016 24.2891C19.8281 21.8359 16.9141 20.6719 14.5391 21.8672C13.9531 22.1641 13.2734 22.7969 12.9531 23.3281C12.8125 23.5625 12.6562 23.75 12.6016 23.75C12.5547 23.75 12.3516 23.5078 12.1562 23.2109C11.6406 22.4375 10.9219 21.8906 10.0312 21.6094L9.63281 21.4766L9.29688 20.7188C8.82031 19.6484 8.55469 18.8828 8.32812 17.9922C7.98438 16.5938 7.92969 16.125 7.92969 14.4531C7.9375 13.0938 7.96094 12.7266 8.11719 12.0312C8.625 9.66406 9.61719 7.80469 11.25 6.17188C13.1797 4.22656 15.8047 3.03125 19.0078 2.61719C20.0078 2.49219 22.3672 2.47656 23.3594 2.58594ZM19.5234 4.40625C19.0078 4.5625 18.5234 4.8125 18.0859 5.14062L17.6875 5.44531L17.0234 5.40625C15.2109 5.3125 13.9609 5.94531 13.3125 7.28125C13.1719 7.59375 13.0469 7.89844 13.0391 7.96875C13.0391 8.03125 12.8672 8.22656 12.6641 8.39844C11.8516 9.09375 11.3516 9.89844 11.125 10.9141C10.8359 12.2109 11.2578 13.8047 12.0625 14.5156C12.2031 14.6406 12.4219 14.9219 12.5391 15.1484C12.9844 15.9609 13.8203 16.4766 14.7969 16.5469C15.2031 16.5703 15.4844 16.6406 15.8594 16.8281C16.5234 17.1484 17.1016 17.1562 17.7578 16.8516L18.2188 16.6406L18.5391 16.8203C19.0156 17.0703 20.0469 17.0703 20.5625 16.8125C21.0234 16.5859 21.5156 16.1016 21.6953 15.6953L21.8281 15.3906H22.2891C22.6953 15.3906 22.7891 15.4219 23.0312 15.6328C24.1094 16.5781 25.7188 16.4922 26.6953 15.4375L27.0703 15.0391H27.6953C28.2188 15.0391 28.3906 15.0078 28.7656 14.8203C29.2891 14.5625 29.6406 14.1797 29.8125 13.6562C29.875 13.4531 29.9688 13.2578 30.0156 13.2344C30.0625 13.2031 30.1641 13.0234 30.25 12.8281C30.375 12.5469 30.4141 12.2969 30.4141 11.6484C30.4219 10.7578 30.3047 10.2109 29.9609 9.52344C29.5547 8.72656 28.5 7.83594 27.4375 7.39062C27.0625 7.23438 26.8281 7.05469 26.4844 6.6875C25.7578 5.91406 24.7344 5.47656 23.6484 5.46875C23.3516 5.46875 23.1953 5.41406 22.8281 5.16406C22.2344 4.76562 21.8047 4.55469 21.3047 4.41406C20.7812 4.27344 19.9609 4.26562 19.5234 4.40625Z" fill="#1F6F5F"/>
<path d="M21.3439 4.9948C21.5861 5.07293 21.9533 5.23699 22.1642 5.35418C22.4924 5.54949 22.5158 5.58074 22.3908 5.65886C21.5314 6.15886 21.1564 6.54949 21.3283 6.76043C21.4845 6.94793 21.633 6.90105 22.0002 6.57293C22.4611 6.14324 23.0314 5.97918 23.8674 6.04168C24.8517 6.11199 25.6799 6.50261 26.1877 7.15105L26.3439 7.35418L26.133 7.83074C25.9377 8.26043 25.922 8.3698 25.9689 8.88543C26.0549 9.90105 25.7502 10.3151 24.9142 10.3151C23.8674 10.3151 23.4064 9.50261 23.8986 8.52605C24.008 8.32293 24.0236 8.19793 23.9767 8.10418C23.6408 7.51043 22.9533 8.90105 23.1955 9.6823C23.4064 10.3932 24.1095 10.8776 24.9455 10.8854C25.5236 10.8932 25.8361 10.7448 26.172 10.3229L26.422 10.0182L26.6955 10.3229C27.008 10.6667 27.047 10.6823 27.2189 10.5026C27.3908 10.3307 27.383 10.2761 27.0705 9.94011C26.5549 9.3698 26.383 8.76824 26.5705 8.19793C26.7502 7.67449 26.7892 7.66668 27.6174 8.08074C29.3127 8.91668 30.0783 10.2839 29.8517 12.0651C29.7502 12.9245 29.633 13.0261 29.0627 12.737C28.7111 12.5573 28.3595 12.1511 28.2345 11.7839C28.1408 11.4948 27.8986 11.4089 27.7345 11.6042C27.6564 11.6979 27.6564 11.7839 27.7658 12.0651C27.9533 12.5495 28.3752 13.0104 28.8674 13.2526C29.1017 13.362 29.297 13.4714 29.297 13.4948C29.297 13.5104 29.2424 13.6276 29.1799 13.7526C28.9142 14.2682 28.133 14.6042 27.4924 14.4792C27.1642 14.4167 27.1486 14.3932 27.047 14.0261C26.8517 13.3386 26.3283 12.8229 26.0549 13.0495C25.8752 13.1979 25.9142 13.3464 26.172 13.5651C26.4064 13.7682 26.5627 14.1589 26.5627 14.5651C26.5627 14.9011 26.2345 15.2761 25.7267 15.5182C24.8752 15.9401 23.9142 15.7682 23.2502 15.0886C22.9611 14.7917 22.9533 14.7839 22.4689 14.8229L21.9767 14.8698L21.9299 14.2917C21.8986 13.9714 21.8595 13.5495 21.8283 13.3542C21.758 12.8698 21.922 12.1354 22.1564 11.9089C22.3127 11.7448 22.4142 11.7214 22.8908 11.7214C23.4924 11.7214 23.8674 11.8542 23.9455 12.1042C24.0158 12.3307 24.1877 12.4401 24.3752 12.3854C24.6408 12.2995 24.5705 11.9792 24.1955 11.6042C23.9299 11.3386 23.7814 11.2526 23.4142 11.1745C22.4924 10.987 21.6799 11.3464 21.4142 12.0573L21.3283 12.2839L21.0392 12.0261C20.6799 11.7136 19.9845 11.3854 19.7502 11.4245C19.6252 11.4401 19.5627 11.5104 19.547 11.6589C19.5236 11.8386 19.5627 11.8776 19.9299 11.9948C20.2033 12.0886 20.4611 12.2526 20.7033 12.5026C21.1877 12.9792 21.3595 13.4792 21.3595 14.4167C21.3595 15.0104 21.3361 15.1823 21.172 15.5104C20.8127 16.2292 20.0314 16.5807 19.1486 16.4089C18.6564 16.3151 18.422 16.1823 18.2267 15.8932C18.1095 15.7136 18.1095 15.6354 18.1955 15.2136C18.2814 14.7839 18.2814 14.7292 18.1642 14.6432C17.9767 14.5026 17.8517 14.5807 17.6955 14.9245C17.5939 15.1511 17.5705 15.3229 17.6095 15.6042C17.7033 16.2682 17.7033 16.2761 17.5002 16.3854C17.1252 16.5807 15.9377 16.4636 15.9377 16.237C15.9377 16.1901 16.0627 16.0104 16.2189 15.8464C16.5861 15.4323 16.797 14.9714 16.797 14.5339C16.797 14.0964 16.7189 13.9636 16.4767 14.0026C16.3049 14.0261 16.2814 14.0729 16.2424 14.5026C16.2033 14.8932 16.1408 15.0573 15.9142 15.3776C15.5392 15.8776 15.1877 16.0495 14.6642 15.987C14.4533 15.9557 14.1252 15.862 13.9377 15.7682C13.5939 15.612 12.9689 14.987 12.9689 14.8073C12.9689 14.7526 13.1017 14.6198 13.258 14.5104C13.7502 14.1667 14.0627 13.5807 14.0627 13.0026C14.0627 12.7292 13.9064 12.5573 13.6955 12.5964C13.5861 12.612 13.5392 12.7292 13.5002 13.0886C13.4299 13.6042 13.1408 14.0495 12.7892 14.1745C12.6174 14.237 12.547 14.2214 12.3752 14.0573C12.1095 13.8151 11.8283 13.2448 11.6799 12.6823C11.2736 11.112 12.0236 9.37761 13.547 8.37761C14.0236 8.06511 14.3752 8.00261 14.8674 8.12761C15.2189 8.21355 15.2736 8.21355 15.3595 8.08855C15.5861 7.77605 15.1564 7.54168 14.3517 7.54168C14.0627 7.54168 13.8283 7.51043 13.8283 7.47918C13.8283 7.3073 14.3361 6.71355 14.6642 6.4948C15.172 6.15886 15.7502 6.00261 16.5549 5.98699L17.2267 5.97918L17.2033 6.53386C17.172 7.13543 17.2814 7.4948 17.6252 7.95574C17.8439 8.22918 18.0861 8.26824 18.2267 8.04168C18.2814 7.94793 18.2345 7.83074 18.0158 7.54949C17.7736 7.22918 17.7345 7.1198 17.7345 6.77605C17.7424 6.06511 18.1408 5.60418 19.1408 5.13543C19.7892 4.82293 20.6642 4.76824 21.3439 4.9948ZM19.6877 7.6198C19.508 7.83855 19.633 7.9948 20.1017 8.13543C20.6877 8.3073 20.7658 8.37761 20.8205 8.81511C20.9142 9.50261 21.0861 9.98699 21.297 10.1511C21.5627 10.362 21.6877 10.3542 21.8049 10.1432C21.883 10.0026 21.8674 9.95574 21.7267 9.83074C21.5939 9.72918 21.5236 9.53386 21.4299 9.01043C21.3674 8.62761 21.2658 8.2448 21.2033 8.15105C21.0783 7.95574 20.7424 7.76043 20.2736 7.61199C19.8595 7.47918 19.8049 7.47918 19.6877 7.6198ZM16.5861 9.37761C16.5314 9.48699 16.3908 9.78386 16.2736 10.0417C15.9689 10.6979 15.5705 11.0964 15.2267 11.0964C14.5861 11.0886 13.9845 10.5807 13.9845 10.0261C13.9845 9.71355 13.7111 9.58855 13.5392 9.81511C13.2658 10.1745 13.6174 10.8932 14.2892 11.3698C14.5783 11.5729 14.6955 11.6042 15.1174 11.6042C15.547 11.6042 15.6564 11.5729 15.9689 11.3464L16.3361 11.0964L16.7189 11.2917C17.1408 11.5026 17.297 11.7214 17.2424 12.0026C17.2267 12.1198 17.2658 12.237 17.3517 12.3151C17.4924 12.4401 17.508 12.4401 17.6564 12.3073C17.8595 12.1276 17.8595 11.6823 17.6642 11.3776C17.508 11.1511 16.9064 10.7057 16.7345 10.7057C16.6017 10.7057 16.6095 10.6745 16.8908 9.9948C17.1017 9.47918 17.1174 9.3698 17.0314 9.26043C16.8908 9.09636 16.7033 9.14324 16.5861 9.37761Z" fill="#1F6F5F"/>
<path d="M17.2657 22.0078C18.2032 22.1641 19.0938 22.7109 19.586 23.4297C20.0157 24.0469 20.1641 24.5547 20.211 25.4766C20.3672 28.4609 18.9532 31.1953 16.1485 33.3906C15.1172 34.1875 12.8438 35.625 12.5938 35.625C12.4688 35.625 11.2266 34.8984 10.2735 34.2578C6.6641 31.8438 5.00004 29.1719 5.00004 25.7891C5.00004 24.4297 5.32816 23.5469 6.09379 22.875C7.75785 21.3984 10.7344 21.7812 11.7813 23.5938C12.0625 24.0938 12.1719 24.2031 12.4375 24.2578C12.7969 24.3359 13.0625 24.1797 13.336 23.7266C14.1016 22.4453 15.7032 21.7422 17.2657 22.0078ZM11.0078 25C10.875 25.0781 10.8594 25.1719 10.8594 26.0547V27.0312H9.89847C9.25785 27.0312 8.90629 27.0625 8.84379 27.125C8.77347 27.1953 8.75004 27.6797 8.75004 28.8438C8.75004 30.3672 8.75785 30.4688 8.89847 30.5469C8.98441 30.5859 9.46097 30.625 9.95316 30.625H10.8516L10.875 31.6172L10.8985 32.6172L12.5313 32.6406C13.6641 32.6562 14.1953 32.6328 14.2657 32.5703C14.3516 32.5 14.375 32.2422 14.375 31.5547V30.625H15.3047C16.0469 30.625 16.2657 30.6016 16.3594 30.5C16.5469 30.3203 16.5469 27.3359 16.3594 27.1562C16.2657 27.0547 16.0469 27.0312 15.3047 27.0312H14.375V26.1016C14.375 25.3594 14.3516 25.1406 14.25 25.0469C14.1485 24.9453 13.8907 24.9219 12.6485 24.9219C11.7735 24.9219 11.1016 24.9531 11.0078 25Z" fill="#1F6F5F"/>
<path d="M13.8438 26.5391L13.8672 27.5391L14.8984 27.5625L15.9375 27.5859V28.7891V30H15.0312C14.5391 30 14.0625 30.0391 13.9766 30.0781C13.8438 30.1562 13.8281 30.25 13.8281 31.1328V32.1094H12.6172H11.4062V31.1875C11.4062 29.9766 11.4297 30 10.2109 30H9.29688V28.7891V27.5781H10.2578C10.8984 27.5781 11.25 27.5469 11.3125 27.4844C11.375 27.4219 11.4062 27.0781 11.4062 26.4688V25.5469H12.6172H13.8203L13.8438 26.5391Z" fill="#1F6F5F"/>
</svg>
