<svg width="40" height="40" viewBox="0 0 40 40" fill="none" xmlns="http://www.w3.org/2000/svg">
<path d="M22.1015 1.99183C21.2969 2.24964 20.5703 2.96058 20.2734 3.77308C20.0625 4.34339 20.0781 5.21058 20.3047 5.79652C20.5312 6.37464 21.1328 7.0387 21.6719 7.30433C23.1406 8.02308 24.8828 7.42933 25.5937 5.96839C25.789 5.56214 25.8125 5.42152 25.8203 4.76527C25.8203 4.07777 25.7969 3.9762 25.5703 3.50745C25.0781 2.50745 24.1953 1.94495 23.0859 1.89808C22.6875 1.88245 22.3281 1.92152 22.1015 1.99183Z" fill="white"/>
<path d="M30.9455 4.625C30.5705 5.57813 30.4846 5.67188 29.8049 5.96094C29.5549 6.07031 29.3283 6.1875 29.3205 6.21875C29.3127 6.25781 29.5549 6.39063 29.8674 6.52344L30.4299 6.75781L30.7502 7.42188L31.0783 8.08594L31.2111 7.75C31.5705 6.875 31.6408 6.78125 32.2424 6.53125C32.5549 6.39844 32.8049 6.25781 32.7892 6.21875C32.7814 6.1875 32.5549 6.07031 32.3049 5.96094C31.6799 5.70313 31.6564 5.67188 31.3596 5.01563C31.2111 4.71094 31.0783 4.45313 31.0549 4.45313C31.0314 4.45313 30.9846 4.53125 30.9455 4.625Z" fill="#ED6B4B"/>
<path d="M13.5859 9.92188C13.4453 10.2656 13.2734 10.6016 13.2031 10.6641C13.1328 10.7266 12.8047 10.8984 12.4687 11.0469C12.1406 11.1875 11.8672 11.3359 11.8672 11.375C11.875 11.4141 12.1641 11.5703 12.5234 11.7188L13.1641 11.9922L13.5391 12.7656L13.9141 13.5391L14.2266 12.8438C14.3906 12.4609 14.5781 12.1094 14.6328 12.0547C14.6797 12.0078 15.0078 11.8438 15.3516 11.6953C15.6953 11.5469 15.9609 11.3984 15.9453 11.3594C15.9219 11.3203 15.6406 11.1719 15.3203 11.0313C14.9922 10.8906 14.6719 10.7188 14.6016 10.6406C14.5312 10.5703 14.3594 10.2344 14.2187 9.89844C14.0703 9.57031 13.9297 9.29688 13.8984 9.29688C13.875 9.29688 13.7344 9.57813 13.5859 9.92188Z" fill="#ED6B4B"/>
<path d="M22.2891 10.9453C19.1016 11.2578 16.6406 14.0078 16.6406 17.2422C16.6406 17.875 16.75 18.1719 17.0781 18.4297C17.2891 18.5938 17.3281 18.5938 22.9609 18.5938C28.4375 18.5938 28.6406 18.5859 28.8594 18.4453C29.2266 18.2031 29.2891 18.0078 29.2891 17.1484C29.2969 15.8594 28.9766 14.8125 28.2344 13.7031C26.9297 11.7344 24.7031 10.7031 22.2891 10.9453Z" fill="white"/>
<path d="M34.6797 21.9778C34.4844 22.0325 32.0156 23.2825 29.2031 24.7434C24.4453 27.2278 24.0547 27.4466 23.625 27.8762C23.1094 28.3841 22.5156 28.7122 21.8828 28.8294C21.2578 28.9466 15.8125 28.7044 15.5703 28.5481C15.3594 28.4153 15.3359 28.1184 15.5156 27.9387C15.6641 27.7825 15.7734 27.7825 18.9453 27.9309C21.7422 28.0637 22.0312 28.0403 22.6328 27.6341C24.3281 26.4934 24.0156 23.8919 22.1094 23.2434C21.6328 23.0872 13.3203 22.7044 12.8047 22.8216C12.6172 22.8684 11.2031 23.5559 9.66406 24.3528L6.875 25.8059L7.48437 26.9856C9.99219 31.8137 10.8984 33.5169 10.9609 33.5169C11.0078 33.5169 11.2266 33.4231 11.4609 33.3059C11.7812 33.1497 12 33.1028 12.3281 33.1106C12.5781 33.1106 14.25 33.4387 16.0547 33.8294C19.5859 34.595 20.3984 34.7044 21.0391 34.5091C21.5781 34.3372 36.6016 26.4934 36.9453 26.2044C37.4141 25.7981 37.6797 25.2278 37.7187 24.5247C37.7656 23.7434 37.6094 23.2591 37.1406 22.7434C36.5156 22.0481 35.5234 21.7434 34.6797 21.9778Z" fill="white"/>
<path d="M3.32812 24.8437C2.60156 25.2266 1.97656 25.5859 1.9375 25.6406C1.90625 25.6953 1.89844 25.7969 1.91406 25.8672C1.97656 26.0625 7.9375 37.4844 8.04687 37.6172C8.10156 37.6797 8.1875 37.7344 8.24219 37.7344C8.29688 37.7344 8.96875 37.4063 9.74219 37.0078C10.9297 36.3828 11.1328 36.25 11.1562 36.0859C11.1719 35.9453 10.2266 34.0625 8.11719 30.0156C5.23437 24.4922 5.04687 24.1406 4.85156 24.1484C4.74219 24.1484 4.05469 24.4609 3.32812 24.8437Z" fill="white"/>
</svg>
