<svg width="40" height="40" viewBox="0 0 40 40" fill="none" xmlns="http://www.w3.org/2000/svg">
<g clip-path="url(#clip0_11275_23454)">
<path d="M9.67969 0.179688C9.32031 0.421875 9.14063 0.804688 9.14063 1.34375L9.14063 1.79688L8.69531 1.79688C7.84375 1.79688 7.34375 2.25 7.34375 3.00781C7.34375 3.76562 7.84375 4.21875 8.69531 4.21875L9.14063 4.21875L9.14063 4.66406C9.14063 5.51563 9.59375 6.01563 10.3516 6.01563C11.1094 6.01563 11.5625 5.51563 11.5625 4.66406L11.5625 4.21875L12.0156 4.21875C12.8594 4.21875 13.3594 3.76563 13.3594 3.00781C13.3594 2.25 12.8594 1.79688 12.0156 1.79688L11.5625 1.79688L11.5625 1.34375C11.5625 0.5 11.1094 3.91717e-09 10.3516 3.12886e-09C10.0625 2.82816e-09 9.86719 0.046875 9.67969 0.179688Z" fill="white"/>
<path d="M17.7031 0.226563C17.3594 0.460938 17.1719 0.8125 17.1719 1.23438C17.1719 1.55469 17.4063 3.58594 17.5469 4.46875L17.5938 4.76563L28.6016 4.76563C34.6563 4.76563 39.6094 4.75 39.6094 4.72656C39.6094 4.70313 39.6953 4.00781 39.8047 3.1875C40.1016 0.921875 40.0703 0.609375 39.4844 0.226563C39.2656 0.0859375 38.9063 0.078125 28.5938 0.078125C18.2344 0.078125 17.9219 0.0859375 17.7031 0.226563Z" fill="white"/>
<path d="M1.79688 1.93989C0.953125 2.36176 0.953125 3.65864 1.79688 4.08051C2.61719 4.49457 3.51563 3.93207 3.51563 3.0102C3.51563 2.3227 3.00781 1.79926 2.34375 1.79926C2.19531 1.79926 1.94531 1.86176 1.79688 1.93989Z" fill="#ED6B4B"/>
<path d="M17.9219 7.32031C17.9688 7.53906 19.2188 16.4141 19.2188 16.5156C19.2188 16.5391 19.4375 16.5625 19.7109 16.5625C21.3047 16.5625 22.6797 17.5391 23.1406 19.0078C23.25 19.3672 23.2813 19.7266 23.2813 20.625L23.2813 21.7813L23.7891 22.2891C24.1328 22.6328 24.3828 22.9766 24.5547 23.3359L24.8047 23.8672L24.8281 27.2813L24.8516 30.7031L30.5859 30.7031C35.3359 30.7031 36.3281 30.6875 36.3281 30.6016C36.3281 30.5391 37 25.25 37.8125 18.8359C38.625 12.4219 39.2969 7.16406 39.2969 7.14063C39.2969 7.125 34.4766 7.10938 28.5859 7.10938L17.875 7.10938L17.9219 7.32031Z" fill="white"/>
<path d="M5.20313 8.19531C4.84375 8.4375 4.6875 8.73438 4.6875 9.21875C4.6875 9.96094 5.11719 10.3906 5.85938 10.3906C6.60156 10.3906 7.03125 9.96094 7.03125 9.21875C7.03125 8.47656 6.60156 8.04688 5.85938 8.04688C5.57031 8.04688 5.35938 8.09375 5.20313 8.19531Z" fill="#ED6B4B"/>
<path d="M9.625 12.4219C9.26563 12.5078 8.86719 12.9063 8.75 13.3047C8.50781 14.125 7.92188 15.0391 7.07813 15.9141L6.46094 16.5625L11.0859 16.5625C14.0781 16.5625 15.7031 16.5391 15.7031 16.4844C15.7031 16.3438 14.875 15.4297 14.2578 14.8984C13.4375 14.1875 12.2734 13.4141 11.2109 12.875C10.2734 12.3984 10.0156 12.3281 9.625 12.4219Z" fill="white"/>
<path d="M2.1875 18.9687C2.03906 19.0391 1.83594 19.2187 1.74219 19.3672C1.57031 19.625 1.5625 19.7031 1.5625 21.2187L1.5625 22.8125L11.2891 22.8125L21.0156 22.8125L21.0156 21.2187C21.0156 19.7031 21.0078 19.625 20.8359 19.3672C20.4531 18.7891 21.1406 18.8281 11.2891 18.8281C3.03906 18.8281 2.44531 18.8359 2.1875 18.9687Z" fill="white"/>
<path d="M0.515625 25.3047C0.398438 25.3828 0.226563 25.5547 0.148438 25.6719C0.00781256 25.8906 5.60021e-08 26.1641 4.93299e-08 32.5781C4.26578e-08 38.9922 0.00781254 39.2656 0.148438 39.4844C0.226563 39.6016 0.398438 39.7734 0.515625 39.8516C0.734375 39.9922 1.09375 40 11.6641 40L22.5781 40L22.5781 32.9453C22.5781 26.1719 22.5703 25.8906 22.4297 25.6719C22.3516 25.5547 22.1797 25.3828 22.0625 25.3047C21.8438 25.1641 21.4922 25.1563 11.2891 25.1563C1.08594 25.1563 0.734375 25.1641 0.515625 25.3047ZM18.0313 29.2578C18.1719 29.3438 18.3594 29.5234 18.4453 29.6563C18.5859 29.8828 18.5938 30.0703 18.5938 32.5781C18.5938 35.0859 18.5859 35.2734 18.4453 35.5C18.3594 35.6328 18.1719 35.8125 18.0313 35.8984C17.7813 36.0547 17.6328 36.0547 11.2891 36.0547L4.80469 36.0547L4.53125 35.8828C4.38281 35.7891 4.1875 35.5938 4.10156 35.4531C3.95313 35.2109 3.94531 35.0547 3.94531 32.6172C3.94531 29.7969 3.96094 29.6719 4.39063 29.3594C4.52344 29.2734 4.73438 29.1719 4.875 29.1328C5.00781 29.1016 7.96875 29.0781 11.4453 29.0859C17.625 29.1016 17.7813 29.1016 18.0313 29.2578Z" fill="white"/>
<path d="M6.20326 31.4297C6.18764 31.4844 6.17982 32.0234 6.18764 32.6172L6.21107 33.7109L11.2736 33.7344L16.3283 33.75L16.3283 32.5391L16.3283 31.3281L11.2892 31.3281C7.2267 31.3281 6.23451 31.3516 6.20326 31.4297Z" fill="white"/>
<path d="M24.8438 36.4844L24.8438 40L30.1016 40C35.1094 40 35.3594 39.9922 35.5781 39.8516C35.6953 39.7734 35.8672 39.6016 35.9453 39.4844C36.0859 39.2734 36.0938 39.0625 36.0938 36.1094L36.0938 32.9688L30.4688 32.9688L24.8438 32.9688L24.8438 36.4844Z" fill="white"/>
</g>
<defs>
<clipPath id="clip0_11275_23454">
<rect width="40" height="40" fill="white"/>
</clipPath>
</defs>
</svg>
