<svg width="38" height="55" viewBox="0 0 38 55" fill="none" xmlns="http://www.w3.org/2000/svg">
<path d="M37.2289 22.6115L10.483 54.253C9.72906 55.1449 8.31864 54.2416 8.81346 53.1837L18.1104 33.3079C18.4428 32.5975 17.8651 31.7984 17.0863 31.8913L1.12072 33.794C0.278562 33.8944 -0.298334 32.9667 0.164127 32.2557L20.8505 0.454721C21.035 0.171095 21.3504 0 21.6887 0H34.1027C34.9273 0 35.3975 0.941992 34.9019 1.60106L20.1794 21.1768C19.6506 21.8799 20.222 22.874 21.0957 22.771L36.3481 20.9729C37.2491 20.8666 37.8146 21.9187 37.2289 22.6115Z" fill="url(#paint0_linear_11178_29162)"/>
<defs>
<linearGradient id="paint0_linear_11178_29162" x1="-1.00098" y1="30" x2="38.8649" y2="30" gradientUnits="userSpaceOnUse">
<stop stop-color="#103A36"/>
<stop offset="1" stop-color="#AAD440"/>
</linearGradient>
</defs>
</svg>
