<svg width="40" height="40" viewBox="0 0 40 40" fill="none" xmlns="http://www.w3.org/2000/svg">
<path d="M17.4219 2.89844C13.9297 4.1875 14.0703 4.125 13.8984 4.40625C13.7656 4.625 13.75 4.8125 13.75 6.30469V7.96875H15.8906H18.0312L18.2969 7.59375C18.4688 7.36719 18.7266 7.14062 18.9922 6.99219C19.3516 6.78906 19.4922 6.75781 20 6.75781C20.5078 6.75781 20.6484 6.78906 21.0078 6.99219C21.2734 7.14062 21.5312 7.36719 21.7031 7.59375L21.9688 7.96875H24.1094H26.25V6.32812C26.25 4.5625 26.2031 4.32812 25.8438 4.13281C25.3906 3.89062 20.1797 2.03125 19.9688 2.03906C19.8359 2.03906 18.6875 2.42969 17.4219 2.89844Z" fill="#1F6F5F"/>
<path d="M19.6327 7.81811C19.0936 7.97436 18.7889 8.66186 18.992 9.24779C19.2889 10.0994 20.6327 10.1619 20.9842 9.33373C21.2811 8.61498 20.8983 7.88842 20.1561 7.77904C20.0077 7.75561 19.7733 7.77123 19.6327 7.81811Z" fill="#1F6F5F"/>
<path d="M6.80469 8.17188C5.50781 8.52344 4.4375 9.60156 4.14844 10.8672C4.09375 11.0859 4.0625 14.2734 4.0625 19.7422V28.2812H10.2188H16.3828L16.8594 28.5234C17.4375 28.8125 17.6719 29.0859 18.1953 30.1328L18.5938 30.9375H20H21.4062L21.8047 30.1328C22.3281 29.0859 22.5625 28.8125 23.1406 28.5234L23.6172 28.2812H29.7812H35.9375V19.6953C35.9375 11.4844 35.9297 11.0859 35.7891 10.6328C35.4062 9.39844 34.3203 8.40625 33.0625 8.13281C32.7891 8.07812 31.5312 8.04688 29.4141 8.04688H26.1797L26.1562 10.9531C26.125 13.7578 26.1172 13.8906 25.9453 14.4141C25.7344 15.0469 25.3906 15.75 25.0625 16.2344L24.8359 16.5625L25.1328 16.6875C25.9922 17.0469 26.9766 17.9141 27.5703 18.8203C28.2188 19.8281 28.4375 20.9141 28.4375 23.1797V24.4531H27.5H26.5625V22.7422C26.5625 21.2812 26.5391 20.9609 26.4141 20.5547C26.0234 19.3125 24.9453 18.3438 23.6641 18.1016C23.2188 18.0234 23.1875 18.0312 22.6016 18.3047C21.6484 18.7422 21.1172 18.8594 20 18.8594C18.8828 18.8594 18.3516 18.7422 17.3984 18.3047C16.8125 18.0312 16.7812 18.0234 16.3359 18.1016C15.0547 18.3438 13.9766 19.3125 13.5859 20.5547C13.4609 20.9609 13.4375 21.2812 13.4375 22.7422V24.4531H12.5H11.5625V23.1797C11.5625 22.4844 11.6016 21.5938 11.6406 21.1953C11.8438 19.2578 12.9297 17.6797 14.6719 16.7969L15.1562 16.5547L14.9297 16.2266C14.6094 15.75 14.2656 15.0391 14.0547 14.4141C13.8828 13.8906 13.875 13.7578 13.8438 10.9531L13.8203 8.04688L10.5234 8.05469C7.90625 8.05469 7.14062 8.07812 6.80469 8.17188Z" fill="#1F6F5F"/>
<path d="M15.625 11.5469C15.625 12.8828 15.6562 13.4453 15.7422 13.7891C16.1094 15.2109 17.1172 16.3359 18.5156 16.8672C18.9609 17.0391 19.1484 17.0625 20 17.0625C20.8516 17.0625 21.0391 17.0391 21.4844 16.8672C22.8828 16.3359 23.8906 15.2109 24.2578 13.7891C24.3438 13.4453 24.375 12.8828 24.375 11.5469V9.76562H23.1328C21.9766 9.76562 21.8828 9.77344 21.8359 9.91406C21.8125 9.99219 21.625 10.2188 21.4141 10.4141C21.0312 10.7734 20.4531 11.0156 20 11.0156C19.5469 11.0156 18.9688 10.7734 18.5859 10.4141C18.375 10.2188 18.1875 9.99219 18.1641 9.91406C18.1172 9.77344 18.0234 9.76562 16.8672 9.76562H15.625V11.5469Z" fill="#1F6F5F"/>
<path d="M3.14844 29.7734C3.01562 29.8125 2.8125 29.9531 2.69531 30.0938L2.49219 30.3359L2.51562 32.3359C2.54688 34.1484 2.5625 34.375 2.71875 34.7891C3.23438 36.1875 4.41406 37.3125 5.82031 37.7578L6.36719 37.9297H20H33.6328L34.1797 37.7578C35.5859 37.3125 36.7656 36.1875 37.2812 34.7891C37.4375 34.375 37.4531 34.1484 37.4844 32.3203L37.5078 30.3047L37.25 30.0469C37.0547 29.8516 36.8828 29.7656 36.6328 29.7266C36.4453 29.7031 33.4375 29.6875 29.9453 29.7031C23.6953 29.7266 23.6016 29.7266 23.3828 29.8906C23.25 29.9844 22.9766 30.4141 22.6875 30.9766C21.9766 32.3438 22.1484 32.2656 20 32.2656C17.8516 32.2656 18.0234 32.3438 17.3125 30.9766C17.0234 30.4141 16.75 29.9844 16.6172 29.8906C16.3984 29.7266 16.3125 29.7266 9.89844 29.7109C6.08594 29.7031 3.29688 29.7266 3.14844 29.7734Z" fill="#1F6F5F"/>
</svg>
