<svg width="40" height="40" viewBox="0 0 40 40" fill="none" xmlns="http://www.w3.org/2000/svg">
<path d="M8.78884 4.4591C4.92165 6.21692 1.68728 7.73254 1.59353 7.81848C1.49978 7.91223 1.38259 8.07629 1.3279 8.19348C1.2654 8.34973 1.24978 10.1232 1.2654 14.6154C1.29665 20.631 1.30446 20.8497 1.46853 21.795C1.8904 24.1388 2.44509 25.8419 3.43728 27.8497C4.57009 30.1388 5.74196 31.7716 7.53103 33.5529C9.55446 35.5607 11.5779 36.8888 14.5935 38.1935C16.1951 38.8966 16.281 38.8966 17.5545 38.3497C19.0623 37.7091 19.9998 37.2482 19.992 37.1544C19.992 37.1075 19.781 36.8888 19.5232 36.6779C18.9138 36.1779 18.0232 35.1779 17.4607 34.381C17.2185 34.0294 17.0154 33.7482 17.0076 33.7482C16.9998 33.7482 16.8279 33.8029 16.6248 33.8654C16.1482 34.006 15.8591 33.9279 14.7107 33.3185C9.77321 30.7169 6.49978 25.9591 5.77321 20.3107C5.66384 19.4825 5.62478 11.5919 5.71853 11.2325C5.86696 10.7091 5.97634 10.6466 11.0857 8.32629C14.2576 6.88879 16.0935 6.09192 16.2576 6.09192C16.5779 6.09192 26.1091 10.4122 26.4451 10.7169C26.7966 11.0216 26.8748 11.381 26.8748 12.6779L26.8748 13.8185L28.0701 13.8185C28.7654 13.8263 29.5623 13.8732 29.9998 13.9435C30.406 14.0138 30.8748 14.0919 31.0388 14.1154L31.3279 14.1622L31.3279 11.4357C31.3279 9.80285 31.2966 8.59191 31.2498 8.42004C31.0701 7.79504 31.2185 7.87317 23.7029 4.4591C17.2185 1.51379 16.5935 1.24817 16.2263 1.25598C15.8591 1.25598 15.0779 1.59973 8.78884 4.4591Z" fill="white"/>
<path d="M12.1484 10.4888L8.16406 12.3091L8.16406 16.2857C8.16406 20.1295 8.17187 20.3013 8.34375 21.1529C8.76562 23.2232 9.60156 25.1607 10.8359 26.8951C11.4062 27.6998 13.0547 29.3716 13.8359 29.942C14.5937 30.4966 15.6172 31.1216 15.6797 31.067C15.7031 31.0357 15.6328 30.692 15.5156 30.2935C15.1562 28.9966 15.0547 28.106 15.1016 26.4888C15.1562 24.4107 15.4844 23.0435 16.3359 21.2466C17.7891 18.192 20.5703 15.6841 23.7344 14.567L24.375 14.3326L24.375 13.317L24.3672 12.3013L20.4062 10.5123C18.2266 9.5279 16.375 8.70759 16.2891 8.69196C16.2031 8.68415 14.3437 9.48884 12.1484 10.4888Z" fill="white"/>
<path d="M26.2578 16.373C24.9844 16.584 23.2891 17.2715 22.1719 18.0215C19.7891 19.6152 18.125 22.1934 17.625 25.0371C17.4609 25.959 17.4609 27.7871 17.625 28.709C18.3984 33.123 21.9609 36.6699 26.3281 37.3809C27.2734 37.5293 28.9688 37.5293 29.9062 37.3809C34.2969 36.6699 37.8516 33.1309 38.625 28.709C38.7891 27.7871 38.7891 25.959 38.625 25.0371C37.8516 20.6152 34.2969 17.0762 29.9062 16.3652C29.0078 16.2168 27.1484 16.2246 26.2578 16.373ZM32.9375 23.3184C33.3516 23.584 33.5547 24.1699 33.3984 24.6309C33.3281 24.834 32.5234 25.7012 30.5859 27.6855C27.5859 30.7559 27.5 30.8184 26.8516 30.6309C26.5781 30.5449 26.2187 30.2324 24.7812 28.8027C23.8203 27.8496 22.9766 26.959 22.9141 26.834C22.4766 26.0059 23.2344 24.9668 24.1562 25.1152C24.4609 25.1621 24.625 25.3027 25.8047 26.4668L27.1094 27.7637L29.3984 25.4902C31.0547 23.834 31.7422 23.2012 31.9141 23.1621C32.0469 23.1309 32.1875 23.0996 32.2266 23.0918C32.3437 23.0605 32.7344 23.1777 32.9375 23.3184Z" fill="#ED6B4B"/>
</svg>
