<svg width="36" height="40" viewBox="0 0 36 40" fill="none" xmlns="http://www.w3.org/2000/svg">
<g clip-path="url(#clip0_11275_23427)">
<path d="M17.3226 0.109375C16.2395 0.40625 15.1956 1.26563 14.6776 2.28906C14.4971 2.64844 14.2851 2.92969 14.0183 3.14844C13.0764 3.92969 11.695 5.69531 11.0985 6.89063C10.7924 7.49219 10.2822 8.94531 10.2822 9.21094C10.2822 9.35938 11.279 10.7734 11.3811 10.7734C11.4046 10.7734 11.6087 10.4688 11.8363 10.1016C12.3465 9.30469 13.304 8.27344 14.1203 7.66406C14.7639 7.17969 16.0668 6.47656 16.6241 6.3125C16.8046 6.26563 16.9537 6.1875 16.9537 6.15625C16.9537 6.11719 16.8596 5.8125 16.7497 5.48438C16.5613 4.92969 16.5456 4.78906 16.577 4.01563C16.6162 3.13281 16.7183 2.72656 17.0872 1.97656C17.3619 1.40625 17.9898 0.609375 18.4136 0.28125L18.7825 -0.00781249L18.2409 8.27901e-09C17.9427 7.96876e-09 17.5267 0.0546875 17.3226 0.109375Z" fill="white"/>
<path d="M20.3839 0.374846C19.4106 0.695158 18.5316 1.47641 18.0449 2.45297C17.5348 3.49985 17.472 4.57016 17.888 5.50766L18.0528 5.86703L18.6571 5.79672C19.5362 5.70297 21.1374 5.72641 21.8202 5.8436C23.2566 6.0936 24.9205 6.80453 26.0665 7.66391C26.867 8.26547 27.801 9.26547 28.3348 10.0936C28.5702 10.4686 28.79 10.7577 28.8135 10.7498C28.8449 10.742 29.1196 10.4061 29.4258 10.0155L29.983 9.29672L29.9045 8.92172C29.5356 7.24985 28.5781 5.45297 27.3772 4.17172C26.765 3.52328 26.7022 3.51547 26.6944 4.14047C26.6865 4.52328 26.4275 4.83578 26.1292 4.83578C25.7996 4.83578 25.6191 4.61703 25.5641 4.14047C25.4464 3.14047 24.5987 2.33578 23.6647 2.33578C23.3586 2.33578 23.0996 2.14047 23.029 1.85141C22.9662 1.56235 23.2801 1.24203 23.6412 1.23422C23.7824 1.23422 23.9708 1.20297 24.0571 1.17172C24.1906 1.11703 24.1513 1.07797 23.7824 0.867033C22.974 0.398283 22.558 0.281096 21.6633 0.249846C21.0118 0.234221 20.7449 0.257658 20.3839 0.374846Z" fill="white"/>
<path d="M25.7132 1.39063L25.3364 1.78125L25.7289 2.17188L26.1213 2.5625L26.5138 2.17188L26.9062 1.78125L26.5216 1.39844C26.3018 1.17969 26.1213 1.00781 26.1135 1.00781C26.1056 1.00781 25.9251 1.17969 25.7132 1.39063Z" fill="white"/>
<path d="M5.88689 3.52473C4.87439 3.68879 4.03456 3.84504 4.01887 3.85286C3.95608 3.91536 6.20869 16.9857 6.35782 17.431C6.59329 18.1263 6.93079 18.681 7.47235 19.2513C8.1866 20.0169 13.4767 24.7044 13.7436 24.8216C14.3401 25.0716 15.0622 24.3997 14.9366 23.72C14.9131 23.6107 14.2224 22.6732 13.4061 21.6419C12.0404 19.931 11.8834 19.7591 11.6244 19.7122C10.9965 19.595 10.4471 19.1888 10.2273 18.6732C10.1645 18.5325 9.99183 17.4779 9.85055 16.3294C9.59154 14.306 9.58369 14.2435 9.72497 14.056C9.94474 13.7513 10.4314 13.7435 10.5962 14.0482C10.6354 14.1341 10.7846 15.1029 10.9258 16.22C11.1692 18.181 11.1849 18.2435 11.3968 18.4622C11.6008 18.6575 11.6636 18.681 11.9776 18.6419C12.4407 18.595 12.7154 18.345 12.7154 17.97C12.7154 17.8138 12.6055 16.7747 12.4642 15.6575L12.2131 13.6263L10.6433 11.595C9.77991 10.4779 9.01858 9.45442 8.94009 9.32942C8.8459 9.16536 8.69677 8.26692 8.44561 6.39973C7.98253 3.02473 8.01392 3.19661 7.85695 3.20442C7.78631 3.21223 6.89939 3.35286 5.88689 3.52473Z" fill="white"/>
<path d="M32.1491 3.48025C32.1256 3.64431 31.9451 4.95681 31.7488 6.39431C31.5055 8.20681 31.3564 9.09744 31.2544 9.28494C31.1759 9.43337 30.4067 10.4724 29.5433 11.5896L27.9735 13.6209L27.7224 15.6521C27.5811 16.7693 27.4712 17.8084 27.4712 17.9646C27.4712 18.3396 27.7459 18.5896 28.209 18.6365C28.523 18.6756 28.5857 18.6521 28.7898 18.4568C29.0017 18.2381 29.0174 18.1756 29.2607 16.2146C29.402 15.0974 29.5512 14.1287 29.5904 14.0427C29.7552 13.7381 30.2419 13.7459 30.4616 14.0506C30.6029 14.2381 30.5951 14.3006 30.336 16.3162C30.1948 17.4568 30.0378 18.4802 29.9907 18.5896C29.7945 19.1052 29.1666 19.5974 28.5622 19.7068C28.3032 19.7537 28.1462 19.9256 26.7805 21.6365C25.9093 22.7381 25.2735 23.6052 25.2421 23.7459C25.1166 24.3943 25.8544 25.0584 26.443 24.8162C26.7099 24.699 32 20.0115 32.7142 19.2459C33.2558 18.6756 33.5933 18.1209 33.8288 17.4256C33.9779 16.9646 36.2305 3.90994 36.1677 3.84744C36.1363 3.824 32.3767 3.19119 32.2433 3.19119C32.2198 3.19119 32.1727 3.324 32.1491 3.48025Z" fill="white"/>
<path d="M18.7198 6.87696C16.5771 7.18164 14.5128 8.36133 13.1942 10.0254C12.7547 10.5801 12.166 11.5488 12.166 11.7207C12.166 11.7832 12.3779 12.1191 12.6448 12.4551C12.9117 12.7988 13.155 13.1348 13.1942 13.2051C13.2727 13.3535 13.8143 17.5645 13.8143 18.0098C13.8064 18.4082 13.571 18.9238 13.257 19.2051L13.0058 19.4395L13.2727 19.7754C13.4218 19.9629 14.0183 20.7051 14.5992 21.4395C15.18 22.166 15.7372 22.9238 15.8314 23.1113C16.0826 23.5879 16.0747 24.1973 15.8157 24.7441L15.6195 25.166L15.8 25.3145C16.4672 25.877 17.6524 26.4941 18.5157 26.7285C19.3556 26.9551 20.8311 26.9551 21.671 26.7285C22.5343 26.4941 23.7195 25.877 24.3867 25.3145L24.5672 25.166L24.371 24.7441C24.1119 24.1973 24.1041 23.5879 24.3553 23.1113C24.4494 22.9238 25.0067 22.166 25.5875 21.4395C26.1683 20.7051 26.7649 19.9629 26.914 19.7754L27.173 19.4473L26.9297 19.2207C26.6236 18.9316 26.3803 18.4004 26.3724 18.0098C26.3724 17.5645 26.914 13.3535 26.9925 13.2051C27.0317 13.1348 27.275 12.7988 27.5419 12.4551C27.8087 12.1191 28.0207 11.7832 28.0207 11.7051C28.0207 11.4863 27.1259 10.1504 26.5765 9.55664C25.2579 8.12696 23.3742 7.15039 21.3962 6.87696C20.6977 6.77539 19.4026 6.78321 18.7198 6.87696Z" fill="white"/>
<path d="M7.47237 22.9453C7.37818 23.0391 7.30754 23.2656 7.27614 23.5781C7.17411 24.4922 6.56975 25.3516 5.76917 25.7031C5.58864 25.7813 5.21975 25.8828 4.95289 25.9141C4.36423 26 4.16016 26.1641 4.16016 26.5547C4.16016 26.9453 4.36423 27.1094 4.95289 27.1953C6.2244 27.3672 7.13487 28.2656 7.2683 29.4922C7.33109 30.0547 7.52731 30.3047 7.8962 30.3047C8.30434 30.3047 8.47702 30.1016 8.55551 29.5C8.73603 28.2266 9.63864 27.3359 10.8866 27.1875C11.4674 27.1172 11.695 26.9375 11.695 26.5547C11.695 26.1797 11.4674 25.9922 10.9102 25.9141C9.6151 25.7422 8.71248 24.8672 8.56335 23.625C8.53196 23.3125 8.45347 23.0625 8.35928 22.9609C8.17091 22.7578 7.66859 22.75 7.47237 22.9453Z" fill="#ED6B4B"/>
<path d="M30.7522 23.9513C30.6815 24.0294 30.5952 24.3107 30.5481 24.5841C30.4461 25.1466 30.2577 25.4982 29.8653 25.8419C29.5984 26.0685 28.9469 26.3185 28.6016 26.3185C28.3112 26.3185 28.0679 26.5763 28.0679 26.8888C28.0679 27.2716 28.2719 27.4748 28.7193 27.5294C29.7632 27.6701 30.3754 28.2404 30.5403 29.2169C30.603 29.5841 30.6737 29.7638 30.815 29.8888C31.2623 30.2951 31.7176 29.9982 31.851 29.2091C32.0158 28.2951 32.6045 27.7091 33.515 27.5607C34.135 27.4669 34.3312 27.3029 34.3234 26.8888C34.3155 26.5138 34.1193 26.3576 33.5856 26.2873C33.0597 26.2169 32.6673 26.0138 32.3141 25.6232C32.0394 25.3185 31.7882 24.6935 31.7882 24.3107C31.7882 23.881 31.0426 23.6232 30.7522 23.9513Z" fill="#ED6B4B"/>
<path d="M16.7027 28.0156C16.6163 29.6641 15.9335 30.625 14.3794 31.2734C14.1047 31.3906 13.0137 31.7031 11.9463 31.9844C9.64655 32.5703 8.91661 32.7969 7.99045 33.1953C5.43173 34.3047 4.23871 36.1406 3.88551 39.5L3.83057 39.9922L20.0934 39.9922L36.3561 39.9922L36.3012 39.5C35.9009 35.6406 34.441 33.8281 30.8463 32.6875C30.4774 32.5781 29.3079 32.2578 28.2404 31.9844C26.4117 31.5078 25.5954 31.2422 25.1245 30.9453C23.9942 30.2422 23.4684 29.2422 23.4684 27.7969C23.4684 27.3047 23.4527 27.2422 23.3349 27.2813C23.2564 27.3047 22.8405 27.4531 22.4088 27.6016C20.8547 28.1484 19.3477 28.1484 17.778 27.6016C17.3463 27.4531 16.9381 27.3125 16.8675 27.2891C16.7576 27.25 16.7341 27.3516 16.7027 28.0156Z" fill="white"/>
</g>
<defs>
<clipPath id="clip0_11275_23427">
<rect width="36" height="40" fill="white"/>
</clipPath>
</defs>
</svg>
