<svg width="73" height="56" viewBox="0 0 73 56" fill="none" xmlns="http://www.w3.org/2000/svg">
<path d="M10.9765 9.73426C4.96889 17.7594 2.2505 30.0918 4.07083 41.0204C4.55358 44.0528 4.82837 44.792 6.1877 46.8702C13.1059 57.6513 29.0228 55.9914 33.6571 43.9758C34.7462 41.1553 34.7418 41.1191 34.2342 36.9855C33.7534 33.0696 33.6319 32.6796 32.3088 30.5969C29.8026 26.672 26.1018 24.1084 21.8576 23.4149C20.5441 23.2081 20.2998 23.0173 20.4009 22.3424C20.5492 20.852 22.5321 15.4189 23.5054 13.7536C24.0512 12.8032 24.429 11.9839 24.3114 11.9247C23.5919 11.461 14.418 6.58809 14.0013 6.49202C13.6979 6.41887 12.4625 7.74833 10.9765 9.73426Z" fill="#10453B" fill-opacity="0.1"/>
<path d="M47.6582 4.52548C45.3045 7.53809 43.9031 10.2129 42.3668 14.487C40.0505 21.102 39.2202 29.9268 40.3339 36.5991C40.8033 39.5227 41.0914 40.3707 42.3286 42.3535C49.1832 53.216 65.2858 51.5701 69.9157 39.5183C71.0048 36.6978 71.0004 36.6615 70.4928 32.528C70.0254 28.7208 69.8861 28.1858 68.7029 26.3436C66.2737 22.446 62.1657 19.5643 58.1888 18.9485C56.6894 18.7277 56.4496 18.5731 56.587 17.8937C56.8447 16.0954 58.54 11.6178 59.5725 9.83481C60.1775 8.76678 60.6418 7.75281 60.5515 7.61669C60.4027 7.30371 50.9438 2.20817 50.1467 2.01159C49.884 1.97024 48.7714 3.1006 47.6582 4.52548Z" fill="#10453B" fill-opacity="0.1"/>
</svg>
