<svg width="122" height="32" viewBox="0 0 122 32" fill="none" xmlns="http://www.w3.org/2000/svg">
<path d="M1.53661 10.5452C2.45294 12.3616 3.9579 14.0175 5.88913 15.3334C8.33924 17.003 11.2481 17.9982 14.0613 18.9607C14.972 19.2723 15.9136 19.5945 16.8306 19.9361C21.4567 21.6593 24.9502 23.9033 27.2868 26.6394C27.8355 26.2342 28.3602 25.825 28.8615 25.4119C27.5272 21.6473 24.3883 18.1948 19.483 15.112C18.6684 14.6002 17.819 14.0976 16.9976 13.6116C14.3682 12.0563 11.6496 10.448 9.47433 8.19612C7.70651 6.36593 6.46406 4.2539 5.88211 2.08847C5.80778 1.81208 5.74822 1.53797 5.69955 1.26562C4.10445 2.25188 2.68892 3.77492 1.65926 5.69419C1.29413 6.37489 0.968721 7.13272 0.704102 7.94731C0.845197 8.82515 1.10542 9.69069 1.53661 10.5452Z" fill="#103A36"/>
<path d="M34.6993 5.69156C32.8334 2.21358 29.7021 0.0328601 26.527 0.000353906C26.5019 2.48805e-06 26.4765 0 26.4511 0C24.2303 0 21.0879 0.998732 18.1791 5.47913C15.2703 0.998381 12.1284 0 9.90723 0C9.88193 0 9.85645 2.48805e-06 9.83132 0.000353906C8.81941 0.0107207 7.81223 0.240197 6.84863 0.659262C6.8973 1.02491 6.96935 1.39372 7.06968 1.7664C7.59786 3.73118 8.73542 5.658 10.359 7.33883C12.4188 9.47124 15.0649 11.0366 17.6237 12.5504C18.4522 13.0404 19.309 13.5472 20.1374 14.068C25.1006 17.1871 28.3526 20.7008 29.8586 24.5544C31.6437 22.9601 33.0912 21.3038 34.2152 19.5724C37.4166 14.6401 36.5642 9.16796 34.6993 5.69156Z" fill="#103A36"/>
<path d="M16.4012 21.0873C15.4998 20.7515 14.5661 20.4321 13.663 20.1232C10.7727 19.1343 7.78385 18.1117 5.19652 16.3484C3.09362 14.9155 1.44844 13.0999 0.438461 11.0977C0.326358 10.8756 0.2255 10.6528 0.133253 10.4297C-0.262096 13.2869 0.169445 16.5326 2.14355 19.5736C5.07563 24.0907 10.2013 28.0972 17.8136 31.8221L18.1794 32.0009L18.5452 31.8221C21.4905 30.3809 24.062 28.8972 26.2798 27.3584C24.0787 24.8169 20.7783 22.7177 16.4012 21.0873Z" fill="#103A36"/>
<path opacity="0.3" d="M17.8148 31.82L18.1802 31.9987L18.3617 31.9099C18.0988 31.7676 17.8407 31.6163 17.5891 31.4566C15.3445 30.0326 13.5156 28.0489 11.801 26.0179C9.92054 23.7902 8.1311 21.4579 6.82241 18.853C6.62175 18.4536 6.43076 18.0446 6.25241 17.628C6.13767 17.3602 6.02891 17.0885 5.92524 16.8148C5.67977 16.664 5.43605 16.5092 5.19709 16.3463C3.09418 14.9134 1.44901 13.0978 0.439028 11.0956C0.327277 10.8741 0.226775 10.6521 0.134527 10.4297C0.130486 10.4594 0.126793 10.4893 0.122752 10.5189C0.106586 10.6414 0.0918267 10.7644 0.0788242 10.8881C0.0733771 10.9406 0.0681011 10.9934 0.0630055 11.0462C0.0515843 11.1682 0.0419216 11.2908 0.0336632 11.414C0.0303247 11.4632 0.0264579 11.5122 0.0236466 11.5618C0.0146853 11.7203 0.00800678 11.8796 0.00449257 12.0399C0.00414115 12.0522 0.00344569 12.0641 0.00326998 12.0764C-6.85187e-05 12.2474 0.000454494 12.4192 0.00344157 12.592C0.00449583 12.6464 0.00695432 12.7013 0.00853571 12.7561C0.0120499 12.8743 0.016798 12.9927 0.023475 13.1117C0.0273406 13.179 0.0319112 13.2465 0.0366554 13.3139C0.0443866 13.4231 0.0538678 13.5324 0.0644104 13.642C0.0710874 13.7114 0.077592 13.781 0.0853232 13.8506C0.0985015 13.9685 0.114311 14.0869 0.130827 14.2053C0.139086 14.2644 0.145943 14.3232 0.154904 14.3824C0.180733 14.5508 0.210073 14.7194 0.242931 14.8883C0.25646 14.9579 0.272457 15.0275 0.287041 15.0972C0.309531 15.2037 0.33237 15.3102 0.357672 15.4168C0.376825 15.4977 0.397736 15.5787 0.418469 15.6595C0.443245 15.7559 0.469427 15.8524 0.496662 15.9491C0.520207 16.0325 0.5441 16.1161 0.569578 16.1996C0.599273 16.2971 0.631252 16.3945 0.663407 16.492C0.690115 16.5726 0.715594 16.6533 0.743883 16.7339C0.795894 16.8817 0.851599 17.0295 0.909759 17.1773C0.946483 17.2704 0.985843 17.3633 1.02503 17.4565C1.06702 17.5563 1.10884 17.6561 1.15365 17.7557C1.19213 17.8413 1.23306 17.9267 1.27382 18.0122C1.31705 18.1031 1.36116 18.1939 1.40684 18.2846C1.45059 18.3714 1.49523 18.458 1.54126 18.5446C1.58976 18.636 1.64054 18.727 1.69184 18.8182C1.73893 18.902 1.78532 18.9858 1.83469 19.0695C1.89918 19.1788 1.96735 19.2875 2.0357 19.3963C2.0726 19.455 2.10723 19.5138 2.14518 19.5723C5.07673 24.0886 10.2024 28.0951 17.8148 31.82Z" fill="#103A36"/>
<path opacity="0.3" d="M1.53706 10.5448C2.36115 12.1784 3.66246 13.681 5.32029 14.9244C4.91457 13.3549 4.73798 11.7324 4.91316 10.1335C5.12489 8.20121 5.83986 6.32182 6.88569 4.6359C6.45274 3.80462 6.11432 2.95068 5.88256 2.08795C5.80824 1.81173 5.74884 1.5378 5.70017 1.26562C5.68717 1.27371 5.67435 1.28179 5.66152 1.28987C5.58561 1.33731 5.51006 1.38581 5.43503 1.43571C5.41148 1.45135 5.38794 1.46734 5.3644 1.48315C5.29306 1.5313 5.22224 1.58067 5.15178 1.6311C5.12648 1.6492 5.10135 1.6673 5.07605 1.68557C5.00787 1.7353 4.94022 1.78625 4.87275 1.83808C4.84657 1.85811 4.82039 1.87797 4.79439 1.89836C4.72815 1.95036 4.66243 2.0036 4.59707 2.05737C4.57124 2.07863 4.54523 2.09954 4.5194 2.12115C4.45333 2.17668 4.38779 2.23378 4.32261 2.29124C4.29853 2.3125 4.27428 2.33306 4.25039 2.3545C4.17782 2.41951 4.10631 2.48628 4.03515 2.55357C4.01951 2.56833 4.00352 2.58257 3.98805 2.5975C3.90389 2.67815 3.8206 2.76056 3.7382 2.84455C3.70024 2.88321 3.66316 2.92327 3.62556 2.96263C3.58163 3.00866 3.53736 3.05452 3.49396 3.10161C3.44915 3.15028 3.40505 3.20018 3.36077 3.24991C3.32598 3.28891 3.29084 3.32775 3.2564 3.36746C3.20913 3.42193 3.16257 3.47745 3.116 3.53315C3.08596 3.56917 3.05573 3.60501 3.02586 3.64156C2.97737 3.70095 2.9294 3.76122 2.88178 3.82184C2.85525 3.85558 2.82889 3.88931 2.80254 3.92358C2.75316 3.98771 2.70449 4.05255 2.65617 4.11808C2.63315 4.14919 2.6103 4.18064 2.58764 4.21191C2.53738 4.28149 2.4873 4.35143 2.43811 4.42241C2.4193 4.44947 2.40086 4.47689 2.38241 4.50394C2.33023 4.58038 2.27857 4.65734 2.22779 4.73535C2.21531 4.7545 2.20301 4.77418 2.19071 4.79351C2.13484 4.88048 2.07931 4.96781 2.02519 5.05672C2.02484 5.05725 2.02449 5.05795 2.02414 5.05865C1.89833 5.26511 1.77709 5.47702 1.66077 5.69384C1.6425 5.72775 1.62509 5.76307 1.60717 5.79751C1.55112 5.90434 1.49596 6.01293 1.44201 6.12345C1.41372 6.18108 1.38578 6.23889 1.35802 6.29758C1.28984 6.44236 1.2229 6.5889 1.15859 6.73931C1.14277 6.77621 1.12784 6.81416 1.1122 6.85141C1.05422 6.99005 0.997986 7.13079 0.943516 7.27382C0.928932 7.3123 0.913997 7.35043 0.899589 7.38926C0.835981 7.56075 0.77501 7.73488 0.717025 7.91199C0.712984 7.92429 0.709119 7.93694 0.705078 7.94942C0.846174 8.8262 1.1064 9.69104 1.53706 10.5448Z" fill="#103A36"/>
<path opacity="0.3" d="M7.0703 1.7664C7.22404 2.33834 7.43104 2.90693 7.68494 3.46726C8.63167 2.20972 9.76043 1.09449 10.9883 0.193635C11.0317 0.161831 11.0761 0.131785 11.1197 0.100509C11.1171 0.100158 11.1145 0.0996274 11.112 0.099276C10.9045 0.0653641 10.7021 0.0407683 10.5051 0.0247788C10.4956 0.0240759 10.4863 0.0233689 10.477 0.0226661C10.3949 0.0163405 10.3141 0.0116004 10.2341 0.00808621C10.2131 0.00720767 10.192 0.0061496 10.1711 0.00527105C10.0836 0.00210829 9.99675 0.000175709 9.91189 0C9.91066 0 9.90961 0 9.90838 0C9.88325 0 9.85813 2.48805e-06 9.83335 0.000353906C9.83107 0.000353906 9.8286 0.000530859 9.82632 0.000530859C9.71369 0.00176082 9.60106 0.00650213 9.4886 0.0130034C9.4524 0.0151119 9.41621 0.018277 9.38001 0.0209126C9.29901 0.0268867 9.21801 0.0340908 9.13718 0.0428762C9.09905 0.0470932 9.06075 0.051307 9.02262 0.0560512C8.93459 0.0669451 8.84674 0.0797766 8.75888 0.0938333C8.73218 0.098226 8.70547 0.101737 8.67876 0.106306C8.56262 0.126337 8.44665 0.149003 8.33103 0.174481C8.31662 0.177644 8.30238 0.181512 8.28815 0.184675C8.18677 0.207692 8.08574 0.232993 7.98506 0.260228C7.95642 0.267959 7.92795 0.276216 7.89949 0.284299C7.80847 0.309953 7.71762 0.337361 7.62695 0.366529C7.60183 0.374611 7.57653 0.382518 7.5514 0.390776C7.31964 0.467737 7.08963 0.555419 6.86226 0.653991C6.85805 0.655748 6.85383 0.657854 6.84961 0.659611C6.89793 1.02526 6.97014 1.3939 7.0703 1.7664Z" fill="#103A36"/>
<path d="M44.5514 24L51.2714 7.272H53.5994L60.3194 24H56.9354L52.4714 11.856L47.9354 24H44.5514ZM48.9674 20.736L49.9274 17.952H54.9674L55.9754 20.736H48.9674ZM61.9713 24V12.168H64.9473V24H61.9713ZM61.8753 10.344V7.272H65.0673V10.344H61.8753ZM67.8781 24V12.168H70.8781V15.384L70.4221 15.432C70.4701 14.744 70.6781 14.136 71.0461 13.608C71.4141 13.08 71.8621 12.672 72.3901 12.384C72.9341 12.08 73.4861 11.928 74.0461 11.928C74.4461 11.928 74.8221 11.984 75.1741 12.096C75.5421 12.192 75.9181 12.36 76.3021 12.6L74.8621 15.288C74.6861 15.192 74.4621 15.104 74.1901 15.024C73.9181 14.944 73.6461 14.904 73.3741 14.904C73.0541 14.904 72.7421 14.96 72.4381 15.072C72.1501 15.184 71.8861 15.36 71.6461 15.6C71.4221 15.84 71.2381 16.16 71.0941 16.56C71.0301 16.784 70.9741 17.072 70.9261 17.424C70.8941 17.76 70.8781 18.256 70.8781 18.912V24H67.8781ZM80.7368 24L77.0888 12.168H80.2568L82.2488 19.44L84.3848 12.168H86.9528L89.0888 19.392L91.1048 12.168H94.2968L90.6248 24H87.9608L85.6808 16.392L83.4488 24H80.7368ZM103.798 24L103.558 22.224V16.536C103.558 15.832 103.334 15.312 102.886 14.976C102.454 14.624 101.862 14.448 101.11 14.448C100.486 14.448 99.846 14.576 99.19 14.832C98.55 15.072 97.982 15.416 97.486 15.864L95.974 13.824C96.806 13.152 97.654 12.672 98.518 12.384C99.398 12.08 100.342 11.928 101.35 11.928C102.982 11.928 104.254 12.336 105.166 13.152C106.078 13.968 106.534 15.096 106.534 16.536V24H103.798ZM100.222 24.24C99.358 24.24 98.582 24.08 97.894 23.76C97.222 23.44 96.686 22.984 96.286 22.392C95.902 21.8 95.71 21.12 95.71 20.352C95.71 19.664 95.846 19.08 96.118 18.6C96.406 18.104 96.782 17.728 97.246 17.472C97.646 17.232 98.086 17.064 98.566 16.968C99.062 16.872 99.59 16.824 100.15 16.824H103.822V19.032H100.582C100.326 19.032 100.07 19.056 99.814 19.104C99.574 19.136 99.366 19.224 99.19 19.368C99.03 19.48 98.91 19.624 98.83 19.8C98.75 19.96 98.71 20.144 98.71 20.352C98.71 20.8 98.886 21.16 99.238 21.432C99.59 21.704 100.062 21.84 100.654 21.84C101.182 21.84 101.662 21.728 102.094 21.504C102.542 21.264 102.894 20.944 103.15 20.544C103.422 20.128 103.558 19.656 103.558 19.128L104.35 20.712C104.142 21.544 103.822 22.224 103.39 22.752C102.974 23.264 102.494 23.64 101.95 23.88C101.406 24.12 100.83 24.24 100.222 24.24ZM109.947 28.896L112.347 23.088L107.883 12.168H111.147L113.931 20.112L116.763 12.168H119.979L113.187 28.896H109.947Z" fill="#0F172A"/>
</svg>
